<?xml version="1.0" encoding="utf-8"?>
<!-- Generator: Adobe Illustrator 19.0.0, SVG Export Plug-In . SVG Version: 6.00 Build 0)  -->
<svg version="1.1" id="Layer_1" xmlns="http://www.w3.org/2000/svg" xmlns:xlink="http://www.w3.org/1999/xlink" x="0px" y="0px"
	 viewBox="0 0 500 500" style="enable-background:new 0 0 500 500;" xml:space="preserve">
<g id="XMLID_3_">
	<path id="XMLID_33_" d="M342.3,354.9c-22-29.9-51.9-75.4-63.3-97.5c54.8-24.9,86.8-60.5,86.8-120.9c0-91-76.8-112.4-147.2-112.4
		H56.2c-3.1,0-5.5,2.5-5.5,5.5v0c0,2.9,2.2,5.3,5.1,5.5c55,4.4,60.4,13.4,60.4,67.9v285.2c0,54.8-5.4,67.6-64.3,70.9
		c-2.6,0.1-4.7,2.3-4.7,4.9v0.1c0,2.8,2.3,5.1,5.1,5.1h164.1c2.8,0,5.1-2.3,5.1-5.1l0,0c0-2.7-2.1-4.9-4.8-5.1
		c-33.1-1.9-48.7-7.1-55.9-22c-2.4-4.9,1.3-10.5,6.7-10.5l117.3,0c5,0,9.5-2,12.8-5.3c3.3-3.3,5.4-7.9,5.3-13
		c-0.1-10-8.6-17.8-18.5-17.8l-129.6,0c0,0,0-2.2,0-2.2v-2.2c0-6.8,5.5-12.3,12.2-12.3h87.8c5,0,9.5-2,12.8-5.3
		c3.3-3.3,5.4-7.9,5.3-13c-0.1-10-8.6-17.8-18.5-17.8l-91.3,0c-4.5,0-8.2-3.7-8.2-8.2l0,0c0-4.5,3.7-8.2,8.2-8.2H220
		c5,0,9.5-2,12.8-5.3c3.3-3.3,5.4-7.9,5.3-13c-0.1-10-8.6-17.8-18.5-17.8l-57.6,0c-4.1,0-7.4-3.3-7.4-7.4v0c0-4.1,3.3-7.4,7.5-7.4
		c54.8,0.1,75.1,1.8,92.1,26.3c105,171.7,140,179,201.9,179.2c2.6,0,4.8-1.7,5.3-4.2l0,0c0.6-2.7-0.9-5.5-3.6-6.4
		C422,452.8,375,395.1,342.3,354.9z M197.9,256.1h-35.4c-4.4,0-8-3.6-8-8v0c0-4.4,3.6-8,8-8H263c5,0,9.5-2,12.8-5.3
		c3.3-3.3,5.4-7.9,5.3-13c-0.1-10-8.6-17.8-18.5-17.8l-100.7,0c-4,0-7.2-3.2-7.2-7.2v0c0-4,3.2-7.2,7.2-7.2h127.1
		c5,0,9.5-2,12.8-5.3c3.3-3.3,5.3-7.9,5.3-12.9c-0.1-10-8.5-17.9-18.5-17.9l-126.6,0c-4,0-7.3-3.3-7.3-7.3l0,0c0-4,3.3-7.3,7.3-7.3
		H284c5,0,9.5-2,12.8-5.3c3.3-3.3,5.3-7.9,5.3-12.9c-0.1-10-8.5-17.9-18.5-17.9l-122.3,0c-3.7,0-6.7-3-6.7-6.7v0
		c0-3.7,3-6.7,6.7-6.7h73.4c5,0,9.5-2,12.8-5.3c3.3-3.3,5.4-7.9,5.3-13c-0.1-10-8.6-17.8-18.5-17.8l-71.3,0c-5.5,0-9.1-6-6.3-10.7
		c1.1-1.9,2.6-2.3,4.3-2.3c6.4-0.7,18.5-1.4,37.7-1.4c74,0,123,32.7,123,108.8c0,40.5-13.5,69-37,87.5
		C265.5,250.4,239.2,256.1,197.9,256.1z"/>
</g>
</svg>
